<?xml version="1.0" encoding="UTF-8" standalone="no"?>
<!-- Created with Inkscape (http://www.inkscape.org/) -->

<svg
   xmlns:dc="http://purl.org/dc/elements/1.1/"
   xmlns:cc="http://creativecommons.org/ns#"
   xmlns:rdf="http://www.w3.org/1999/02/22-rdf-syntax-ns#"
   xmlns:svg="http://www.w3.org/2000/svg"
   xmlns="http://www.w3.org/2000/svg"
   xmlns:sodipodi="http://sodipodi.sourceforge.net/DTD/sodipodi-0.dtd"
   xmlns:inkscape="http://www.inkscape.org/namespaces/inkscape"
   width="133.80765mm"
   height="30.92124mm"
   viewBox="0 0 133.80765 30.92124"
   version="1.1"
   id="svg8"
   sodipodi:docname="logo2.svg"
   inkscape:version="0.92.3 (2405546, 2018-03-11)">
  <defs
     id="defs2" />
  <sodipodi:namedview
     id="base"
     pagecolor="#ffffff"
     bordercolor="#666666"
     borderopacity="1.0"
     inkscape:pageopacity="0.0"
     inkscape:pageshadow="2"
     inkscape:zoom="1.4142136"
     inkscape:cx="250.1442"
     inkscape:cy="49.304889"
     inkscape:document-units="mm"
     inkscape:current-layer="text20"
     showgrid="false"
     inkscape:window-width="1366"
     inkscape:window-height="715"
     inkscape:window-x="0"
     inkscape:window-y="0"
     inkscape:window-maximized="1"
     fit-margin-top="0"
     fit-margin-left="0"
     fit-margin-right="0"
     fit-margin-bottom="0" />
  <metadata
     id="metadata5">
    <rdf:RDF>
      <cc:Work
         rdf:about="">
        <dc:format>image/svg+xml</dc:format>
        <dc:type
           rdf:resource="http://purl.org/dc/dcmitype/StillImage" />
        <dc:title></dc:title>
      </cc:Work>
    </rdf:RDF>
  </metadata>
  <g
     inkscape:label="Capa 1"
     inkscape:groupmode="layer"
     id="layer1"
     transform="translate(-79.564365,-136.92259)">
    <g
       aria-label="Mockraft"
       style="font-style:normal;font-variant:normal;font-weight:normal;font-stretch:normal;font-size:49.38888931px;line-height:1.25;font-family:'Moonlights on the Beach';-inkscape-font-specification:'Moonlights on the Beach';letter-spacing:0px;word-spacing:0px;fill:#262529;fill-opacity:1;stroke:none;stroke-width:0.26458332"
       id="text20"
       transform="translate(15.357816,-79.081658)">
      <path
         d="m 67.318062,225.04239 q 1.432278,-2.12372 3.160889,-3.556 1.728611,-1.43228 3.358444,-2.32128 1.679223,-0.889 3.160889,-1.28411 1.481667,-0.39511 2.420056,-0.39511 0.296333,0 0.543278,0.0988 0.246944,0.0494 0.395111,0.0494 0.839611,0.34572 1.481667,0.98778 0.691444,0.59266 0.691444,1.62983 0,0.98778 -0.790222,2.2225 -0.740834,1.18533 -1.926167,2.81517 1.580445,-1.87678 3.160889,-3.556 1.580444,-1.67923 3.012722,-2.96334 1.432278,-1.28411 2.667,-2.02494 1.234722,-0.74084 2.173111,-0.74084 0.839611,0 1.679223,0.83962 0.839611,0.79022 0.839611,1.87677 0,0.19756 0.04939,0.34573 0.04939,0.0988 -0.296334,0.74083 -0.296333,0.64205 -1.284111,2.12372 -0.938389,1.43228 -2.913944,4.24745 1.382889,-1.53106 2.815166,-2.91395 1.432278,-1.38289 2.765778,-2.42005 1.3335,-1.08656 2.469445,-1.72862 1.185333,-0.64205 2.024944,-0.64205 0.4445,0 0.889,0.24694 0.444499,0.19756 0.790219,0.59267 0.39511,0.34572 0.59267,0.83961 0.24694,0.4445 0.24694,0.93839 0,0.24694 -0.29633,0.83961 -0.29633,0.59267 -1.08656,1.87678 -0.740828,1.23472 -2.074328,3.25967 -1.3335,2.02494 -3.457222,5.13644 0,-0.0494 0,-0.0494 0.04939,0 0.04939,-0.0494 -1.432278,2.17311 -2.469445,3.70417 -0.987777,1.53105 -1.629833,2.61761 -0.642056,1.08656 -0.938389,1.87678 -0.296333,0.79022 -0.296333,1.43228 0,0.98777 0.493889,1.58044 0.493889,0.59267 1.185333,0.93839 0.740833,0.34572 1.432278,0.4445 0.740833,0.14817 1.185333,0.19756 4.691945,0.34572 9.038167,-0.19756 4.34622,-0.49389 8.49489,-1.28411 4.19805,-0.79022 8.24794,-1.53106 4.09928,-0.74083 8.24795,-0.83961 1.28411,-0.0494 2.56822,0.0494 1.3335,0.0988 2.71639,0.34572 1.3335,0.24695 1.92616,0.69145 0.64206,0.49389 0.83961,0.98778 0.24695,0.54327 0.14817,0.98777 -0.0494,0.4445 -0.0988,0.64206 -0.34572,0.64205 -0.69144,1.03717 -0.29633,0.34572 -0.59267,0.4445 -0.29633,0.14816 -0.39511,-0.29634 -0.34572,-1.13594 -2.12372,-1.82739 -1.778,-0.69144 -4.54378,-0.74083 -2.56822,-0.0494 -5.53155,0.29633 -2.91395,0.39511 -6.12423,0.889 -3.16089,0.54328 -6.51933,1.08656 -3.30906,0.59267 -6.61811,0.93839 -3.259666,0.34572 -6.420555,0.34572 -3.160888,0.0494 -5.976055,-0.54328 -1.185334,-0.34572 -1.975556,-0.93839 -0.740833,-0.59266 -1.185333,-1.28411 -0.4445,-0.69144 -0.642056,-1.43228 -0.148166,-0.74083 -0.148166,-1.43227 0,-1.28411 0.4445,-2.667 0.493889,-1.38289 1.086555,-2.51884 0.642056,-1.28411 1.531056,-2.51883 0.296333,-0.59267 0.740833,-1.3335 0.493889,-0.74083 0.938389,-1.38289 0.4445,-0.69144 0.740833,-1.13594 0.296334,-0.49389 0.246945,-0.49389 1.086555,-1.67923 2.024944,-2.91395 0.987778,-1.23472 1.629834,-2.12372 0.691444,-0.889 1.086555,-1.53106 0.395111,-0.64205 0.395111,-1.13594 0,-0.34572 -0.395111,-0.34572 -0.246944,0 -0.938389,0.54328 -0.642055,0.49388 -1.679222,1.48166 -0.987778,0.93839 -2.321278,2.27189 -1.3335,1.3335 -2.815166,2.91395 -1.926167,2.02494 -3.704167,3.80294 -1.728611,1.778 -3.259667,4.09928 l -0.395111,0.69144 q -0.395111,0.93839 -0.4445,1.18534 -0.04939,0.19755 -0.04939,0.29633 0,0.34572 0.09878,0.4445 0.09878,0.0494 0.09878,0.4445 0,0.14817 -0.148167,0.49389 -0.148167,0.29633 -0.839611,0.29633 -0.395111,0 -0.889,-0.14816 -0.493889,-0.19756 -0.889,-0.54328 -0.395111,-0.34572 -0.691445,-0.79022 -0.246944,-0.49389 -0.246944,-1.03717 0,-0.64206 0.296333,-1.18534 0.04939,-0.0988 0.04939,-0.14816 0,-0.0988 0.04939,-0.19756 0.04939,-0.14816 0.148167,-0.39511 0.148166,-0.24694 0.4445,-0.74083 0.740833,-1.53106 1.679222,-2.91395 0.938389,-1.43227 1.728611,-2.56822 0.790222,-1.13594 1.3335,-1.82739 0.543278,-0.74083 0.493889,-0.83961 2.271889,-2.96333 3.704167,-4.98828 1.432278,-2.02494 1.432278,-2.71639 0,-0.34572 -0.395112,-0.34572 -0.296333,0 -1.975555,1.62984 -1.629833,1.62983 -4.0005,4.14866 -2.370667,2.51884 -5.087056,5.58095 -2.716389,3.01272 -5.087055,5.82789 -0.642056,1.03716 -1.135945,1.87677 -0.493889,0.83962 -0.740833,1.48167 -0.148167,0.34572 -0.246945,0.69145 -0.246944,0.64205 -0.246944,1.3335 0,0.59266 0.296333,0.889 h 0.148167 q 0.148167,0 0.345722,0.0494 0.197556,0.0988 0.197556,0.34573 0,0.4445 -0.395111,0.69144 -0.395111,0.29633 -0.938389,0.29633 -0.790222,0 -1.679222,-0.69144 -0.839612,-0.64206 -0.839612,-2.32128 0,-1.13594 0.4445,-2.46944 0.493889,-1.38289 1.135945,-2.667 0.642055,-1.3335 1.3335,-2.46945 0.740833,-1.18533 1.234722,-2.02494 0.987778,-1.58045 2.2225,-3.35845 1.234722,-1.778 2.321278,-3.35844 1.135944,-1.58045 1.876778,-2.71639 0.790222,-1.18533 0.790222,-1.48167 0,-0.34572 -0.246945,-0.34572 -0.345722,0 -1.185333,0.49389 -0.790222,0.49389 -1.975555,1.62983 -1.185334,1.08656 -2.765778,2.91395 -1.531056,1.778 -3.358445,4.445 0.04939,0 -0.296333,0.39511 -0.296333,0.39511 -0.691444,1.03717 -0.395112,0.59266 -0.740834,1.28411 -0.345722,0.69144 -0.345722,1.23472 0,0.39511 0.197556,0.64205 h 0.296333 q 0.197555,0 0.395111,0.0494 0.197556,0.0494 0.197556,0.24695 0,0.34572 -0.4445,0.69144 -0.395112,0.34572 -0.987778,0.34572 -0.493889,0 -0.938389,-0.29633 -0.4445,-0.29633 -0.790222,-0.79022 -0.296334,-0.49389 -0.493889,-1.08656 -0.148167,-0.59266 -0.148167,-1.13594 0,-1.23472 0.691444,-2.71639 0.740834,-1.53106 2.321278,-3.95111 z"
         style="font-size:49.38888931px;fill:#02aab0;fill-opacity:1;stroke-width:0.26458332"
         id="path30"
         inkscape:connector-curvature="0" />
      <path
         d="m 107.54763,234.72261 q -0.0494,0 -0.0988,0 0,-0.0494 -0.0494,-0.0494 -0.19756,0 -0.29633,-0.0494 -0.39511,0.83961 -0.74084,1.43227 -0.34572,0.54328 -0.93839,1.23473 -1.28411,1.62983 -2.46944,2.27189 -1.13594,0.64205 -2.02494,0.889 -0.19756,0.0988 -0.39512,0.0988 -0.19755,0.0494 -0.39511,0.0988 -0.987774,0.19756 -1.777996,0 -0.740834,-0.14817 -1.284111,-0.54328 -0.543278,-0.39511 -0.889,-0.889 -0.395111,-0.49389 -0.592667,-0.93839 -0.395111,-0.93839 -0.345722,-1.87677 0,-0.98778 0.395111,-2.12373 0.296333,-0.93839 1.037167,-2.12372 0.740833,-1.18533 1.728611,-2.32128 0.04939,-0.0494 0.09878,-0.0988 0.04939,-0.0494 0.148167,-0.14817 0.09878,-0.0988 0.148167,-0.19756 0.09878,-0.0988 0.296333,-0.24694 1.03716,-1.03717 2.86455,-2.02495 1.87678,-1.03716 4.0005,-1.23472 0.59267,0 1.13595,0.19756 0.4445,0.14816 0.83961,0.54328 0.39511,0.34572 0.54328,1.08655 0,0.34572 0,0.49389 0,0.0988 -0.0988,0.34572 -0.0494,0.0988 -0.0988,0.19756 -0.0494,0.0494 -0.0988,0.14816 h -0.0494 q -0.0494,0.14817 -0.19755,0.19756 -0.14817,0.0494 -0.29633,0.0494 -0.29634,0 -0.29634,-0.39511 0.0988,-0.14817 0,-0.24695 -0.0988,-0.59266 -1.03717,-0.4445 -0.39511,0.0988 -1.43227,0.64206 -0.98778,0.49389 -2.37067,1.82739 -0.24694,0.24694 -0.4445,0.49389 -0.19756,0.24694 -0.39511,0.49389 -0.24695,0.14816 -0.29633,0.29633 -0.29634,0.39511 -0.59267,0.79022 -0.29633,0.34572 -0.59267,0.889 -0.839605,1.3335 -1.234717,2.32128 -0.345722,0.98778 -0.4445,2.02494 0.04939,0.93839 0.493889,1.23473 0.493889,0.24694 1.135938,0.0988 0.69145,-0.14816 1.43228,-0.59266 0.74083,-0.49389 1.3335,-0.98778 0.49389,-0.49389 0.64206,-0.64206 0.19755,-0.14816 0.59266,-0.59266 0.74084,-0.889 0.93839,-1.43228 0.19756,-0.4445 0.0494,-0.79022 -0.14817,-0.34573 -0.39511,-0.69145 -0.19756,-0.39511 -0.34572,-0.83961 -0.14817,-0.4445 0.0988,-1.13594 0.14816,-0.34573 0.24694,-0.59267 0.14817,-0.29633 0.34572,-0.49389 0.49389,-0.59267 0.98778,-0.79022 0.54328,-0.24695 0.93839,-0.29633 0.0988,-0.0988 0.24694,-0.0988 h 0.14817 q 0.19756,0 0.29633,0.0988 0.24695,0.0494 0.4445,0.34572 0.0988,0.14816 0.0988,0.54328 0,0.39511 -0.0988,0.889 -0.0494,0.49388 -0.14816,0.98777 -0.0494,0.4445 -0.0988,0.74084 -0.0494,0.19755 -0.0988,0.39511 0,0.19755 -0.0988,0.4445 0.14817,0 0.19756,-0.0494 0.74083,-0.14817 1.23472,-0.34572 0.49389,-0.24695 0.74084,-0.34573 0.54327,-0.24694 0.79022,-0.34572 0.29633,-0.0988 0.29633,0.29634 -0.0494,0.0988 -0.0494,0.24694 v 0.0988 q 0,0.24694 -0.19755,0.59266 -0.14817,0.34573 -0.69145,0.64206 -0.34572,0.19756 -0.98778,0.34572 -0.59266,0.0988 -1.48166,-0.0494 z"
         style="font-size:49.38888931px;fill:#02aab0;fill-opacity:1;stroke-width:0.26458332"
         id="path32"
         inkscape:connector-curvature="0" />
      <path
         d="m 117.26798,232.74706 q -0.24695,-0.19756 -0.34572,-0.4445 -0.0988,-0.24695 -0.0494,-0.49389 0.0494,-0.29633 0.39511,-0.69145 0.69144,-0.79022 1.13594,-1.48166 0.4445,-0.74084 0.24695,-0.98778 -0.0988,-0.0988 -0.889,0.39511 -0.79022,0.49389 -1.92617,1.53106 -1.08655,0.98777 -2.32128,2.42005 -1.18533,1.43228 -2.07433,3.21028 -0.19756,0.59267 -0.24694,1.08656 -0.0494,0.39511 0.0988,0.83961 0.19756,0.39511 0.79023,0.49389 1.13594,0.0988 2.37066,-0.19756 1.23472,-0.34572 2.46945,-0.93839 1.23472,-0.64205 2.37066,-1.43228 1.13595,-0.83961 2.07434,-1.72861 0.24694,-0.24694 0.4445,-0.4445 0.24694,-0.19755 0.4445,-0.34572 l 0.34572,-0.34572 q 0.4445,-0.39511 0.74083,-0.54328 0.24695,-0.0988 0.39511,0.0494 0.19756,0.14817 0.0494,0.889 0,0.19755 -0.0988,0.4445 -0.19755,0.54328 -0.93838,1.23472 -0.29634,0.39511 -0.64206,0.69145 -0.98778,0.98777 -2.17311,1.82738 -1.13595,0.83962 -2.42006,1.48167 -1.23472,0.64206 -2.51883,1.03717 -1.23472,0.34572 -2.42006,0.34572 -1.18533,0.0988 -1.92616,-0.29633 -0.79022,-0.34572 -1.23472,-0.74084 -0.54328,-0.49388 -0.79023,-1.13594 -0.54327,-1.58045 -0.29633,-3.01272 0.24694,-1.48167 0.98778,-2.76578 0.69144,-1.28411 1.72861,-2.37067 1.03717,-1.08655 2.07433,-1.87678 1.08656,-0.83961 2.02495,-1.3335 0.93839,-0.54327 1.43227,-0.69144 0.79023,-0.14817 1.38289,0.0494 0.59267,0.19755 0.98778,0.49389 0.49389,0.34572 0.83961,0.83961 0.24695,0.34572 0.4445,0.74083 0.14817,0.34572 0.19756,0.79022 0.0494,0.4445 -0.14817,0.889 -0.19755,0.4445 -0.54328,0.93839 -0.34572,0.49389 -0.79022,0.889 -0.39511,0.34573 -0.83961,0.59267 -0.4445,0.19756 -0.83961,0.0988 z"
         style="font-size:49.38888931px;fill:#02aab0;fill-opacity:1;stroke-width:0.26458332"
         id="path34"
         inkscape:connector-curvature="0" />
      <path
         d="m 139.97066,233.4385 q 0.0494,0.24695 -0.0494,0.49389 -0.0988,0.24695 -0.24694,0.59267 -0.14817,0.34572 -0.49389,0.74083 -0.39511,0.4445 -1.03717,1.13595 -0.59266,0.69144 -1.18533,1.38288 -0.59267,0.64206 -1.08656,1.18534 -0.49388,0.54328 -0.64205,0.69144 l -0.0494,0.0494 -0.0988,0.0988 q -0.34572,0.29633 -0.74083,0.4445 -0.34572,0.14817 -0.74083,0.24694 -0.74084,0.0988 -1.778,-0.14816 -1.03717,-0.19756 -2.46945,-1.08656 -1.53105,-1.03717 -2.37067,-2.02494 -0.83961,-1.03717 -1.18533,-1.92617 -0.29633,-0.889 -0.14817,-1.53106 0.14817,-0.64205 0.54328,-0.889 0.34572,-0.19755 1.13595,-0.39511 0.79022,-0.24694 1.67922,-0.54327 0.93839,-0.34573 1.778,-0.74084 0.889,-0.39511 1.3335,-0.98778 0.39511,-0.54327 0.39511,-1.13594 v -0.0494 q 0,-0.29633 -0.24694,-0.29633 -0.29634,-0.0494 -1.13595,0.39511 -0.79022,0.4445 -1.778,1.13594 -0.98778,0.64206 -2.07433,1.43228 -1.03717,0.79022 -1.778,1.53106 -0.0988,0.19755 -0.19756,0.29633 l -0.64205,0.98778 q -0.0988,0.14816 -0.19756,0.29633 -0.0494,0.14817 -0.14817,0.29633 -0.14816,0.24695 -0.24694,0.4445 -0.0988,0.19756 -0.19756,0.39512 -0.14816,0.34572 -0.24694,0.74083 -0.24694,0.74083 -0.24694,1.43228 0,0.54328 0.29633,0.83961 0.24694,-0.0494 0.4445,0.0494 0.14817,0.0988 0.24694,0.24694 0.0988,0.14817 -0.0494,0.49389 -0.14816,0.49389 -0.889,0.64206 -0.19755,0 -0.34572,0 -0.19755,0.0494 -0.39511,0 -0.0988,0 -0.0988,-0.0494 -0.0494,0 -0.0988,0 -1.23473,-0.49389 -1.53106,-1.62984 -0.34572,-1.18533 -0.0494,-2.61761 0.29633,-1.48166 1.03717,-3.1115 0.74083,-1.62983 1.58044,-3.06211 0.79022,-1.43228 1.48167,-2.51883 0.74083,-1.08656 1.03717,-1.48167 0.0494,-0.0988 0.14816,-0.19755 v -0.0494 q 1.53106,-2.07434 2.37067,-3.35845 0.889,-1.3335 1.28411,-2.07433 0.49389,-0.889 0.59267,-1.3335 0,-0.39511 -0.0494,-0.49389 -0.0494,-0.0494 -0.0494,-0.0988 -0.0494,-0.0494 -0.0494,-0.24694 -0.0494,-0.24695 0.0988,-0.4445 0.24694,-0.4445 1.08655,-0.4445 0.49389,0.0494 0.98778,0.39511 0.54328,0.29633 0.93839,0.79022 0.39511,0.49389 0.54328,1.13595 0.19755,0.59266 -0.0494,1.23472 -0.0988,0.34572 -0.29633,0.69144 -0.29634,0.54328 -0.889,1.43228 -0.54328,0.889 -1.28412,1.97556 -0.74083,1.03716 -1.58044,2.2225 -0.83961,1.18533 -1.62983,2.32127 0.83961,-0.59266 1.72861,-1.08655 0.889,-0.54328 1.72861,-0.93839 0.83961,-0.4445 1.62983,-0.64206 0.79022,-0.24694 1.38289,-0.19755 h 0.0494 q 1.18533,0.14816 1.67922,0.79022 0.54328,0.64206 0.4445,1.53106 -0.0494,0.0988 -0.0494,0.24694 -0.0494,0.0988 -0.0494,0.29633 0,0.14817 -0.0988,0.34573 -0.14817,0.49388 -0.54328,1.08655 -0.39511,0.59267 -1.13595,1.18533 -0.74083,0.59267 -1.92616,1.08656 -1.13595,0.4445 -2.86456,0.69144 -0.24694,0.0494 -0.49389,0.0988 -0.24694,0 -0.49389,0 -0.0988,0.0494 -0.14816,0.0494 -0.0988,0.0988 -0.0988,0.14817 0.0494,0.0494 0.24694,0.39511 0.19756,0.34572 0.54328,0.83961 0.59267,0.83961 1.43228,1.778 0.83961,0.889 1.58044,1.28411 0.49389,0.14817 0.74084,0.0988 0.34572,-0.0988 0.79022,-0.39511 0.49389,-0.29634 1.13594,-1.03717 0.59267,-0.74083 1.13595,-1.38289 0.59267,-0.69144 1.03717,-1.23472 0.54327,-0.59267 0.98777,-1.18533 0.39511,-0.4445 0.69145,-0.64206 0.24694,-0.14817 0.4445,0 0.24694,0.0988 0.24694,0.83961 z"
         style="font-size:49.38888931px;fill:#02aab0;fill-opacity:1;stroke-width:0.26458332"
         id="path36"
         inkscape:connector-curvature="0" />
      <path
         d="m 150.24973,233.63606 q 0.4445,-0.4445 0.79022,-0.64206 0.29633,-0.14816 0.54328,0 0.24694,0.0988 0.14816,0.79022 -0.0494,0.19756 -0.19755,0.4445 -0.0988,0.24695 -0.29634,0.59267 -0.19755,0.34572 -0.59266,0.74083 -0.39511,0.4445 -1.03717,1.13595 -0.64205,0.64205 -1.28411,1.28411 -0.64206,0.64206 -1.18533,1.18533 -0.54328,0.49389 -0.69145,0.64206 -0.79022,0.74083 -1.72861,0.79022 -0.889,0.0494 -1.67922,-0.49389 -0.69145,-0.4445 -1.3335,-1.48166 -0.59267,-1.03717 -0.29634,-2.61762 0.14817,-0.54327 0.4445,-1.28411 0.29634,-0.79022 0.69145,-1.48166 0.39511,-0.54328 0.74083,-1.08656 0.39511,-0.59267 0.79022,-1.13594 0,-0.0988 0.0494,-0.0988 0.0494,-0.0494 0.0988,-0.14817 v -0.0494 q 0.0494,-0.0494 0.19756,-0.29633 0.19755,-0.24694 0.34572,-0.54328 0.14817,-0.34572 0.14817,-0.64205 0.0494,-0.34573 -0.19756,-0.59267 v -0.0494 q -0.14817,0.19756 -0.29633,0.39511 -0.14817,0.14817 -0.34573,0.34572 -0.14816,0.19756 -0.34572,0.39512 -0.14816,0.19755 -0.29633,0.4445 -0.83961,1.03716 -1.43228,1.72861 -0.54328,0.64205 -0.889,1.03716 -0.4445,0.49389 -0.64205,0.69145 -0.79023,0.93839 -1.23473,0.83961 -0.19755,0 -0.29633,-0.24695 -0.0988,-0.0494 -0.14817,-0.19755 -0.0988,-0.19756 0.0494,-0.49389 0.39511,-0.83961 1.13595,-1.67922 0.69144,-0.889 1.53105,-1.97556 0.39511,-0.4445 0.64206,-0.69144 0.24694,-0.29634 0.59266,-0.74084 0.19756,-0.34572 0.0988,-0.69144 -0.0494,-0.34572 -0.19755,-0.74083 -0.0988,-0.39511 -0.14817,-0.79023 0,-0.4445 0.34572,-0.98777 0.34572,-0.4445 0.74084,-0.79023 0.64205,-0.49388 1.23472,-0.4445 0.64205,0 0.889,0.0494 l 0.0988,0.0494 q 0.19755,0.0988 0.24694,0.14817 0.39511,0.29633 0.39511,0.889 0,0.54328 -0.29633,1.23472 -0.14817,0.24695 -0.29634,0.54328 -0.14816,0.29633 -0.34572,0.54328 0,0.0494 -0.0988,0.14816 0.34573,0.0988 0.98778,0.39511 0.69145,0.29634 1.23472,0.889 0.54328,0.54328 0.64206,1.43228 0.14817,0.83961 -0.59267,2.02495 -0.0988,0.19755 -0.24694,0.34572 -0.0988,0.14817 -0.19756,0.29633 -0.24694,0.24695 -0.34572,0.39511 -0.14817,0.19756 -0.34572,0.49389 l -0.74083,0.98778 q -1.03717,1.43228 -1.58045,2.42006 -0.49389,0.93838 0.0494,1.3335 0.24694,0.14816 0.64206,0.0494 0.34572,-0.0988 0.79022,-0.39512 0.4445,-0.29633 1.13594,-0.98777 0.69145,-0.69145 1.28411,-1.3335 0.59267,-0.69145 1.08656,-1.23473 0.54328,-0.59266 1.03717,-1.08655 z"
         style="font-size:49.38888931px;fill:#02aab0;fill-opacity:1;stroke-width:0.26458332"
         id="path38"
         inkscape:connector-curvature="0" />
      <path
         d="m 159.15593,234.52506 q -1.38289,2.12372 -2.71639,3.65478 -0.59267,0.64205 -1.23472,1.23472 -0.59267,0.54328 -1.23472,0.889 -0.64206,0.34572 -1.23473,0.39511 -0.59266,0.0988 -1.13594,-0.24694 -1.03717,-0.74084 -1.53106,-1.67923 -0.54327,-0.98778 -0.64205,-2.07433 -0.0988,-1.08656 0.19755,-2.17311 0.24695,-1.08656 0.79023,-2.02495 0.49389,-0.889 1.48166,-1.92616 1.03717,-1.08656 2.32128,-1.97556 0,0 0.29633,-0.19755 0.0988,-0.0988 0.19756,-0.0988 0.0988,-0.0494 0.24694,-0.14817 1.28412,-0.79022 3.25967,-1.38289 1.97556,-0.59266 4.19806,-0.19755 0.59266,0.14816 1.08655,0.4445 0.39511,0.24694 0.69145,0.74083 0.34572,0.49389 0.39511,1.28411 -0.0494,0.34572 -0.0988,0.49389 0,0.14817 -0.0988,0.34572 -0.14816,0.24695 -0.29633,0.29634 v 0.0494 q -0.19756,0.0988 -0.29633,0.0988 -0.14817,0 -0.24695,-0.0494 -0.24694,-0.0988 -0.19755,-0.4445 v -0.29633 q -0.0988,-0.59267 -0.93839,-0.69144 -0.4445,-0.0988 -1.58045,0.19755 -1.13594,0.29633 -2.71639,1.28411 -0.29633,0.14817 -0.59266,0.34572 -0.24695,0.19756 -0.54328,0.39512 -0.0988,0.0988 -0.14817,0.14816 -0.0494,0 -0.14816,0.0988 h -0.0494 q -0.69145,0.54328 -1.48167,1.3335 -0.74083,0.83961 -1.53106,1.87678 -0.74083,0.98778 -1.23472,1.92616 -0.49389,0.889 -0.59266,1.58045 -0.0988,0.69144 0.49388,0.889 0.49389,0.14817 1.58045,-0.74083 1.13594,-0.93839 2.32128,-2.2225 1.23472,-1.28412 2.32127,-2.61762 1.13595,-1.3335 1.67923,-2.02494 0.0494,0 0.0494,0 0,-0.0494 0.0494,-0.0494 0.4445,-0.54328 1.03717,-0.93839 0.59267,-0.4445 1.28411,-0.19755 1.28411,0.39511 1.62984,1.13594 0.34572,0.74083 -0.0494,1.43228 v 0.0494 0.0494 q -0.0494,0 -0.0494,0.0494 0,0.0494 -0.0494,0.0494 0,0 0,0.0494 l -0.0494,0.0494 v 0.0494 l -0.0494,0.0494 q -0.0988,0.0988 -0.14817,0.24694 -0.0494,0.14817 -0.14816,0.24695 v 0.0494 q -0.0494,0 -0.0494,0.0494 v 0.0494 q -0.0494,0 -0.0494,0.0494 l -0.0494,0.0494 v 0.0494 q -0.0494,0 -0.0494,0.0494 -0.4445,0.74083 -0.83961,1.43228 -0.39511,0.69144 -0.64205,1.3335 -0.19756,0.59267 -0.19756,1.03717 0,0.4445 0.29633,0.64205 0.24695,0.14817 0.64206,0.0494 0.29633,-0.0988 0.74083,-0.39511 0.49389,-0.29633 1.08656,-1.03717 0.59266,-0.69144 1.13594,-1.3335 0.54328,-0.64205 0.98778,-1.18533 0.54328,-0.59267 0.98778,-1.13595 0.34572,-0.4445 0.64205,-0.64205 0.24695,-0.14817 0.4445,0 0.19756,0.0988 0.19756,0.79022 0,0.24695 -0.0494,0.49389 -0.0988,0.24694 -0.24694,0.59267 -0.0988,0.29633 -0.4445,0.69144 -0.39512,0.4445 -0.98778,1.13595 -0.59267,0.64205 -1.18534,1.28411 -0.59266,0.64205 -1.03716,1.18533 -0.4445,0.49389 -0.59267,0.64206 -0.74083,0.74083 -1.67922,0.79022 -0.889,0.0988 -1.72861,-0.4445 -0.4445,-0.29633 -0.93839,-0.74083 -0.49389,-0.49389 -0.83961,-1.18534 -0.34572,-0.69144 -0.4445,-1.53105 -0.0494,-0.83962 0.34572,-1.87678 z"
         style="font-size:49.38888931px;fill:#02aab0;fill-opacity:1;stroke-width:0.26458332"
         id="path40"
         inkscape:connector-curvature="0" />
      <path
         d="m 163.18652,246.03267 q -0.889,-0.69144 -0.79022,-2.2225 0.0988,-1.53106 0.83961,-3.50661 0.74084,-2.02495 1.97556,-4.24745 1.18533,-2.27189 2.56822,-4.39561 1.3335,-2.17311 2.71639,-4.04989 1.38289,-1.92616 2.46944,-3.21027 1.13595,-1.38289 2.56823,-2.86456 1.48166,-1.48167 3.16088,-2.51883 0.83962,-0.54328 1.62984,-0.79023 0.79022,-0.29633 1.48166,-0.19755 0.49389,0.14817 0.79023,0.39511 0.24694,0.24694 0.39511,0.69144 0.19755,0.4445 0,1.23473 -0.24695,0.93839 -1.53106,2.46944 -1.28411,1.48167 -3.16089,3.16089 -0.34572,0.29633 -0.69144,0.59267 -0.29633,0.29633 -0.59267,0.54327 -0.79022,0.69145 -1.72861,1.28412 -0.93839,0.54327 -1.67922,1.03716 -0.19756,0.24695 -0.39511,0.54328 -0.19756,0.29633 -0.39511,0.59267 0.69144,-0.64206 1.38289,-0.74084 0.69144,-0.0988 0.93838,-0.0494 h 0.14817 q 0.0988,0.0494 0.14817,0.0494 0.0494,0 0.14816,0.0494 0.54328,0.29634 0.59267,0.93839 0.0988,0.64206 -0.14817,1.48167 -0.0988,0.19755 -0.14816,0.39511 -0.0494,0.19755 -0.14817,0.4445 0.889,-0.0494 1.48167,-0.14817 0.64205,-0.14816 0.889,-0.24694 0.39511,-0.0988 0.54328,0.14816 0.14816,0.24695 0.14816,0.64206 0,0.4445 -0.0988,0.98778 -0.0494,0.14816 -0.19755,0.4445 -0.14817,0.29633 -0.54328,0.54328 -0.34572,0.19755 -1.03717,0.24694 -0.69144,0.0494 -1.82738,-0.29633 -0.19756,0 -0.49389,-0.14817 -0.19756,0.39511 -0.49389,0.83961 -0.83961,1.62983 -1.97556,3.30906 -1.08655,1.62983 -2.2225,2.96333 -1.08655,1.38289 -2.02494,2.32128 -0.93839,0.98778 -1.38289,1.28411 -0.74083,0.49389 -1.3335,0.49389 -0.59267,0.0494 -1.03717,-0.0494 -0.54328,-0.14817 -0.93839,-0.4445 z m 18.52084,-26.52183 q -0.24695,-0.0494 -1.13595,0.93838 -0.83961,0.93839 -1.778,2.17312 -1.13594,1.43227 -2.46944,3.30905 2.76578,-2.27189 3.90172,-3.556 1.18533,-1.28411 1.53106,-1.92617 0.39511,-0.74083 -0.0494,-0.93838 z m -16.74284,24.34872 q -0.24694,0.39511 -0.14816,0.49389 0.0494,0.0494 0.19755,0 1.43228,-1.13595 2.61761,-2.46945 1.13595,-1.28411 2.02495,-2.667 0.93839,-1.38289 1.62983,-2.71639 0.69145,-1.3335 1.18533,-2.46944 -0.24694,-0.4445 -0.49388,-0.98778 -0.19756,-0.54328 0.0988,-1.28411 -1.38289,2.2225 -2.667,4.34622 -1.23472,2.12372 -2.2225,3.85234 -0.98777,1.67922 -1.58044,2.76577 -0.59267,1.08656 -0.64206,1.13595 z"
         style="font-size:49.38888931px;fill:#02aab0;fill-opacity:1;stroke-width:0.26458332"
         id="path42"
         inkscape:connector-curvature="0" />
      <path
         d="m 185.27185,233.29034 q 0.34572,-0.4445 0.64206,-0.64206 0.24694,-0.14817 0.4445,0 0.19755,0.0988 0.24694,0.79022 0.0494,0.19756 0,0.4445 -0.0494,0.24695 -0.19755,0.59267 -0.14817,0.34572 -0.49389,0.74083 -0.34573,0.4445 -0.889,1.13595 -0.54328,0.64205 -1.08656,1.28411 -0.54328,0.64205 -0.98778,1.18533 -0.39511,0.49389 -0.54327,0.64206 -0.69145,0.74083 -1.62984,0.83961 -0.889,0.0494 -1.72861,-0.49389 -0.34572,-0.19756 -0.74083,-0.59267 -0.4445,-0.39511 -0.74084,-0.889 -0.34572,-0.54328 -0.54327,-1.18533 -0.24695,-0.69145 -0.19756,-1.43228 0.0988,-0.54328 0.29633,-1.28411 0.14817,-0.79022 0.49389,-1.48167 0.34573,-0.83961 0.79023,-1.62983 0.4445,-0.79022 0.83961,-1.43228 0.4445,-0.74083 0.889,-1.43228 0.79022,-1.18533 1.67922,-2.56822 0.889,-1.38289 1.43228,-2.27189 -2.51884,0 -4.09928,-0.24694 -1.58045,-0.24695 -2.46945,-0.54328 -0.889,-0.34572 -1.18533,-0.64205 -0.29633,-0.34573 -0.19755,-0.49389 0.19755,-0.4445 0.59266,-0.34573 0.19756,0.0494 0.34572,0.24695 0.14817,0.19755 1.23473,0.29633 1.08655,0.0988 2.42005,0.0988 1.3335,0 2.56822,-0.0494 1.28412,-0.0494 1.82739,-0.0988 -0.39511,-0.69144 -0.54327,-1.23472 -0.14817,-0.59267 0.29633,-1.58044 0.49389,-1.03717 1.08655,-1.53106 0.59267,-0.54328 1.13595,-0.79022 0.59267,-0.24695 1.23472,-0.24695 0.93839,0.0988 1.62983,1.13595 0.74084,1.03717 0.39512,2.27189 h -0.0494 q -0.0494,0.19755 -0.24695,0.69144 -0.0988,0.19756 -0.24694,0.4445 -0.0988,0.24695 -0.29634,0.59267 1.43228,-0.39511 2.91395,-0.69145 1.48167,-0.29633 2.667,-0.39511 1.3335,-0.0988 2.07433,0.19756 0.74084,0.24694 1.08656,0.69144 0.39511,0.4445 0.49389,0.889 0.0988,0.4445 0.0988,0.64206 -0.0494,0.59267 -0.19755,0.98778 -0.14817,0.34572 -0.39511,0.59266 -0.24695,0.24695 -0.64206,0 -0.29633,-0.14816 -0.93839,-0.4445 -0.64205,-0.29633 -1.62983,-0.54327 -0.98778,-0.24695 -2.32128,-0.29634 -1.28411,-0.0988 -2.86455,0.19756 -0.39511,0.0988 -0.79023,0.19755 -0.34572,0.0494 -0.74083,0.14817 -0.0494,0 -0.24694,0.0988 -0.83961,1.28411 -1.82739,2.71639 -0.93839,1.43227 -1.82739,2.76577 -0.889,1.3335 -1.62983,2.46945 -0.74084,1.08655 -1.13595,1.72861 l -0.54328,0.98778 q -0.83961,1.43228 -0.889,2.42005 0,0.93839 0.64206,1.3335 0.29633,0.14817 0.64205,0.0494 0.29634,-0.0988 0.74084,-0.39511 0.4445,-0.29633 0.98778,-0.98778 0.54327,-0.69144 1.03716,-1.3335 0.54328,-0.64205 0.93839,-1.18533 0.49389,-0.59267 0.889,-1.13594 z m 1.23472,-15.113 q -0.49389,0.0494 -0.98777,0.79022 -0.49389,0.69144 -0.34573,1.58044 0.4445,-0.69144 0.64206,-1.08655 0.24694,-0.4445 0.39511,-0.69145 0.14817,-0.24694 0.19756,-0.34572 0.0494,-0.14817 0.0988,-0.24694 z"
         style="font-size:49.38888931px;fill:#02aab0;fill-opacity:1;stroke-width:0.26458332"
         id="path44"
         inkscape:connector-curvature="0" />
    </g>
    <flowRoot
       xml:space="preserve"
       id="flowRoot22"
       style="font-style:normal;font-variant:normal;font-weight:normal;font-stretch:normal;font-size:40px;line-height:1.25;font-family:'Moonlights on the Beach';-inkscape-font-specification:'Moonlights on the Beach';letter-spacing:0px;word-spacing:0px;fill:#000000;fill-opacity:1;stroke:none"
       transform="scale(0.26458333)"><flowRegion
         id="flowRegion24"><rect
           id="rect26"
           width="277.14285"
           height="88.571426"
           x="291.42856"
           y="816.80542" /></flowRegion><flowPara
         id="flowPara28" /></flowRoot>  </g>
</svg>
