<svg width="603" height="172" xmlns="http://www.w3.org/2000/svg">
 <style type="text/css">.st0{fill:#430098;}</style>

 <g>
  <title>background</title>
  <rect fill="none" id="canvas_background" height="174" width="605" y="-1" x="-1"/>
 </g>
 <g>
  <title>Layer 1</title>
  <g id="logos">
   <g id="Page-1">
    <g id="main">
     <g id="nav">
      <path d="m137.7,2l-120.6,0c-8.3,0 -15.1,6.7 -15.1,15c0,0 0,0.1 0,0.1l0,137.8c0,8.3 6.7,15.1 15,15.1c0,0 0.1,0 0.1,0l120.6,0c8.3,0 15.1,-6.7 15.1,-15c0,0 0,-0.1 0,-0.1l0,-137.8c0,-8.3 -6.7,-15.1 -15,-15.1c0,0 0,0 -0.1,0zm6.8,152.9c0.1,3.7 -2.9,6.7 -6.5,6.7c-0.1,0 -0.1,0 -0.2,0l-120.7,0c-3.7,0.1 -6.7,-2.9 -6.7,-6.5c0,-0.1 0,-0.1 0,-0.2l0,-137.8c-0.1,-3.7 2.9,-6.7 6.5,-6.7c0.1,0 0.1,0 0.2,0l120.6,0c3.7,-0.1 6.7,2.9 6.7,6.5c0,0.1 0,0.1 0,0.2l0,137.8l0.1,0zm-104.6,-10.1l18.9,-16.9l-18.9,-16.9l0,33.8zm68,-68c-5.4,-5.2 -12.7,-7.9 -20.2,-7.6c-10.7,0.3 -21.4,2.2 -31.5,5.9l0,-47.8l-16.8,0l0,72.7l11.8,-5.5c0,0 19.3,-8.8 36.2,-8.8c8.4,0 10.5,4.6 10.5,8.8l0,50.4l16.9,0l0,-50.4c0.3,-6.7 -2.2,-13.1 -6.9,-17.7zm-22.2,-22.3l16.9,0c6.8,-7.6 11.2,-17.1 12.5,-27.3l-16.9,0c-1.9,10 -6.2,19.4 -12.5,27.3zm464.1,39.5l0,-36.9l16.9,0l0,36.9c0,8.4 2.9,12.6 9.6,12.6s9.2,-3.8 9.2,-12.6l0,-36.9l16.5,0l0,37.4c0,16.4 -8,26.1 -26.1,26.1c-18.1,-0.6 -26.1,-10.2 -26.1,-26.6zm-70.5,-36.9l16.9,0l0,22.7l17.2,-22.7l19.3,0l-21,24.4l22.7,37.8l-18.9,0l-14.7,-24.8l-4.6,5.5l0,19.3l-16.9,0l0,-62.2zm-79.8,30.6c0,-22.7 15.6,-32.3 30.7,-32.3c15.1,0 30.7,9.6 30.7,32.3s-15.6,32.3 -30.8,32.3c-15.1,0 -30.6,-9.2 -30.6,-32.3zm44.1,0c0,-11.4 -5,-18.5 -13.9,-18.5c-8.8,0 -13.8,7.2 -13.8,18.5c0,11.3 5,18.9 13.8,18.9c8.8,0 13.9,-7.2 13.9,-18.9zm-111.8,-30.6l24.4,0c15.9,0 25.6,5.5 25.6,20.2c0,9.6 -4.2,15.6 -12.2,18.1l13,24l-17.6,0l-12.2,-21.4l-4.6,0l0,21.4l-16.4,0l0,-62.3l0,0zm24,27.7c6.7,0 10.1,-2.1 10.1,-7.2c0,-5.1 -2.9,-7.2 -10.1,-7.2l-7.2,0l0,14.3l7.2,0.1zm-88.2,-27.7l44.5,0l0,13.9l-27.7,0l0,10l19.7,0l0,13l-19.7,0l0,11.3l28.9,0l0,13.4l-45.8,0l0.1,-61.6zm-76.1,0l16.9,0l0,23.1l20.6,0l0,-23.1l16.9,0l0,62.1l-16.9,0l0,-25.2l-20.6,0l0,25.2l-16.9,0l0,-62.1z" class="st0" id="logo"/>
     </g>
    </g>
   </g>
  </g>
 </g>
</svg>