<!DOCTYPE svg PUBLIC "-//W3C//DTD SVG 20010904//EN" "http://www.w3.org/TR/2001/REC-SVG-20010904/DTD/svg10.dtd">
<svg version="1.0" xmlns="http://www.w3.org/2000/svg" width="475px" height="160px" viewBox="0 0 4750 1600" preserveAspectRatio="xMidYMid meet">
<g id="layer101" fill="#04d8ff" stroke="none">
 <path d="M433 1571 c-88 -64 -109 -196 -71 -445 2 -15 -6 -22 -40 -32 -62 -19 -161 -71 -212 -113 -24 -20 -49 -34 -55 -33 -5 2 -7 1 -3 -3 4 -4 -7 -25 -23 -48 -24 -33 -29 -50 -29 -99 0 -59 14 -92 60 -139 57 -58 203 -140 274 -153 33 -6 37 -10 32 -29 -15 -50 -26 -197 -19 -262 8 -87 33 -145 81 -184 33 -28 43 -31 110 -31 64 0 83 5 148 36 40 20 105 62 143 94 l69 58 48 -42 c67 -57 102 -81 173 -116 51 -26 71 -30 139 -30 58 0 83 4 92 15 7 8 17 12 23 8 5 -3 7 -1 3 5 -3 5 -3 12 2 14 23 9 53 74 67 146 17 85 18 81 -12 279 -5 29 -2 33 23 38 74 16 207 88 267 144 82 77 97 151 47 238 -47 82 -182 171 -317 208 -27 7 -27 11 -8 90 39 160 -4 341 -94 396 -53 32 -146 26 -233 -16 -40 -19 -95 -52 -123 -74 -27 -22 -54 -37 -60 -34 -5 4 -7 3 -3 -1 3 -4 -1 -16 -9 -26 -15 -17 -18 -18 -39 -2 -12 9 -20 20 -17 25 2 4 1 6 -4 5 -4 -2 -33 16 -63 38 -92 68 -165 98 -250 102 -71 3 -77 2 -117 -27z m203 -82 c57 -26 114 -63 166 -110 l37 -34 -45 -50 c-25 -27 -59 -69 -76 -92 -30 -41 -31 -42 -107 -48 -42 -4 -93 -11 -115 -17 -21 -5 -40 -7 -42 -5 -11 11 -25 188 -19 240 12 109 33 137 104 137 28 0 70 -9 97 -21z m701 -29 c20 -39 23 -60 22 -160 -1 -63 -4 -126 -8 -140 -8 -28 -7 -28 -146 -11 -99 12 -87 4 -180 122 -27 35 -53 67 -58 70 -13 9 111 106 178 139 48 25 71 30 115 28 54 -3 55 -4 77 -48z m-402 -217 c64 -79 67 -73 -36 -73 l-91 0 28 38 c40 52 58 72 64 72 3 0 19 -17 35 -37z m140 -190 c9 -16 24 -41 35 -58 20 -32 42 -71 84 -149 l26 -48 -29 -52 c-15 -28 -38 -67 -49 -86 -12 -19 -26 -44 -32 -55 -41 -79 -41 -79 -127 -89 -45 -5 -119 -5 -165 -2 l-83 7 -52 87 c-93 156 -105 186 -91 219 17 38 74 137 116 201 l34 52 159 0 158 0 16 -27z m-478 -30 c-13 -21 -27 -45 -31 -53 -19 -40 -34 -61 -39 -53 -5 7 -47 124 -47 129 0 4 54 11 98 13 l42 1 -23 -37z m706 21 c13 -4 12 -13 -5 -57 -11 -29 -22 -60 -25 -70 -4 -12 -18 4 -49 60 -24 42 -44 79 -44 81 0 6 102 -6 123 -14z m-897 -56 c7 -32 16 -58 55 -146 19 -43 19 -44 1 -85 -37 -81 -49 -112 -57 -145 -8 -37 -5 -37 -92 -4 -78 30 -158 79 -192 118 -82 93 -12 179 229 282 40 17 48 14 56 -20z m1049 13 c144 -55 255 -142 255 -201 0 -60 -96 -140 -229 -190 -25 -10 -53 -20 -61 -24 -11 -5 -21 9 -38 56 -13 35 -28 72 -34 82 -30 55 -28 75 12 174 22 54 40 103 40 110 0 15 -4 16 55 -7z m-155 -406 c6 -16 6 -33 2 -37 -10 -10 -122 -21 -122 -13 0 4 13 26 28 49 15 22 34 56 41 74 l14 34 14 -39 c8 -21 18 -51 23 -68z m-718 6 l39 -63 -63 7 c-35 4 -66 9 -70 11 -3 2 3 30 14 62 25 70 30 80 36 62 3 -8 23 -44 44 -79z m15 -152 l92 -12 31 -44 c18 -24 50 -65 71 -89 21 -25 39 -49 39 -54 0 -11 -126 -103 -180 -130 -32 -17 -63 -24 -109 -24 l-64 -1 -20 39 c-22 43 -28 169 -13 280 7 56 8 58 34 52 15 -3 68 -11 119 -17z m752 -23 c6 -25 11 -88 11 -141 0 -113 -23 -179 -68 -196 -53 -20 -190 38 -284 120 l-47 42 75 94 76 94 66 6 c37 3 83 10 102 15 56 13 57 12 69 -34z m-402 -51 c-21 -27 -43 -51 -47 -53 -7 -3 -67 65 -82 93 -4 6 26 10 81 10 l88 0 -40 -50z"/>
 <path d="M813 940 c-46 -27 -83 -91 -83 -140 0 -43 33 -120 51 -120 6 0 7 -6 3 -12 -4 -7 -3 -10 1 -5 5 4 17 -1 27 -10 13 -12 37 -17 82 -17 57 -1 68 2 103 30 92 74 84 211 -15 276 -38 25 -127 24 -169 -2z"/>
 <path d="M2850 1168 c-55 -25 -106 -71 -130 -118 -81 -160 -26 -345 127 -424 45 -23 184 -22 226 1 47 26 76 53 103 95 24 37 54 140 54 186 l0 22 -220 0 c-215 0 -220 0 -220 20 0 33 35 93 68 117 67 50 180 47 251 -6 l33 -25 24 29 c13 17 24 33 24 36 0 10 -55 45 -107 67 -68 29 -169 29 -233 0z m270 -355 c-28 -86 -78 -123 -165 -123 -25 0 -59 7 -76 15 -37 20 -89 90 -89 121 l0 24 168 2 c92 2 169 2 170 1 2 -1 -2 -19 -8 -40z"/>
 <path d="M3420 1166 c-58 -31 -87 -72 -96 -133 -14 -106 46 -194 141 -209 74 -11 154 3 193 33 l35 26 -5 -67 c-4 -43 -12 -74 -23 -86 -44 -49 -159 -50 -227 -3 -21 14 -38 30 -38 34 0 21 -19 6 -35 -27 -16 -34 -16 -37 2 -56 10 -11 39 -31 65 -44 40 -20 62 -24 138 -24 78 0 96 3 128 24 83 52 92 88 92 350 l0 196 -50 0 c-50 0 -50 0 -50 -32 -1 -29 -2 -31 -14 -16 -43 57 -178 74 -256 34z m192 -63 c68 -26 78 -39 78 -99 0 -71 -24 -95 -108 -108 -53 -8 -113 7 -137 34 -27 29 -29 108 -5 138 21 25 74 51 107 52 13 0 42 -7 65 -17z"/>
 <path d="M4065 1158 c-82 -45 -128 -108 -145 -198 -25 -133 25 -255 130 -317 49 -30 61 -33 137 -33 98 0 155 23 201 82 11 14 8 20 -22 43 l-35 27 -23 -27 c-49 -57 -175 -53 -237 7 -72 70 -72 235 0 307 60 60 176 65 231 10 l29 -29 34 26 c30 22 33 28 22 45 -7 11 -34 34 -62 52 -43 28 -60 32 -125 35 -69 2 -80 0 -135 -30z"/>
 <path d="M4573 1168 c-46 -33 -53 -72 -53 -279 l0 -184 -45 3 -45 4 0 -52 0 -52 45 4 45 3 0 -72 0 -73 50 0 50 0 0 70 0 70 56 0 55 0 -3 48 -3 47 -53 0 -52 0 0 170 c0 94 3 180 6 193 8 27 44 38 74 22 25 -13 35 -5 47 39 15 57 -109 85 -174 39z"/>
 <path d="M2060 794 l0 -386 203 4 c198 3 203 4 242 30 23 14 52 41 67 59 59 78 55 213 -8 288 -36 42 -116 87 -135 76 -11 -8 -1 8 119 188 39 60 72 113 72 118 0 5 -26 9 -58 9 l-57 0 -53 -82 c-29 -46 -58 -92 -65 -102 -7 -11 -26 -41 -44 -69 l-31 -49 -71 -1 -71 -2 0 153 0 152 -55 0 -55 0 0 -386z m396 -44 c29 -28 54 -78 54 -111 0 -36 -31 -88 -65 -109 -28 -17 -49 -20 -154 -20 l-121 0 0 136 0 136 130 -4 c121 -3 131 -5 156 -28z"/>
 </g>

</svg>